<svg width="48" height="48" xmlns="http://www.w3.org/2000/svg" viewBox="0 0 128 128" xmlns:v="https://vecta.io/nano"><defs><linearGradient id="A" x1="32" y1="-14" x2="106.74" y2="87.51" gradientUnits="userSpaceOnUse"><stop offset="0" stop-color="#41d1ff"/><stop offset="1" stop-color="#bd34fe"/></linearGradient><linearGradient id="B" x1="67.25" y1="1.43" x2="80.77" y2="94.17" gradientUnits="userSpaceOnUse"><stop offset="0" stop-color="#ffea83"/><stop offset=".08" stop-color="#ffdd35"/><stop offset="1" stop-color="#ffa800"/></linearGradient></defs><path d="m127.5,18.95l-60.05,107.38c-1.24,2.22-4.43,2.23-5.68.02L.52,18.96c-1.37-2.4.68-5.32,3.41-4.83l60.12,10.75c.38.07.78.07,1.16,0l58.86-10.73c2.72-.49,4.78,2.39,3.43,4.8Z" fill="url(#A)"/><path d="M92.68.03L48.24 8.74c-.73.14-1.27.76-1.32 1.5l-2.73 46.17c-.06 1.09.93 1.93 2 1.69l12.37-2.86c1.16-.27 2.2.75 1.97 1.92l-3.68 18c-.25 1.21.89 2.25 2.07 1.89l7.64-2.32c1.18-.36 2.32.68 2.07 1.89l-5.84 28.27c-.37 1.77 1.99 2.73 2.97 1.22l.66-1.01 36.21-72.27c.61-1.21-.44-2.59-1.77-2.33l-12.74 2.46c-1.2.23-2.22-.88-1.88-2.05l8.31-28.82A1.63 1.63 0 0 0 92.67.04z" fill="url(#B)"/></svg>